<svg width="19" height="21" viewBox="0 0 19 21" fill="none" xmlns="http://www.w3.org/2000/svg">
<path d="M14.2188 0.814941H4.57875C2.44875 0.814941 0.71875 2.55494 0.71875 4.67494V18.7649C0.71875 20.5649 2.00875 21.3249 3.58875 20.4549L8.46875 17.7449C8.98875 17.4549 9.82875 17.4549 10.3387 17.7449L15.2188 20.4549C16.7987 21.3349 18.0888 20.5749 18.0888 18.7649V4.67494C18.0788 2.55494 16.3488 0.814941 14.2188 0.814941ZM11.8988 10.2149H6.89875C6.48875 10.2149 6.14875 9.87494 6.14875 9.46494C6.14875 9.05494 6.48875 8.71494 6.89875 8.71494H11.8988C12.3088 8.71494 12.6488 9.05494 12.6488 9.46494C12.6488 9.87494 12.3088 10.2149 11.8988 10.2149Z" fill="#2C2523"/>
</svg>
