<svg width="24" height="25" viewBox="0 0 24 25" fill="none" xmlns="http://www.w3.org/2000/svg">
<path d="M7.9917 12.3604H14.9917" stroke="#292D32" stroke-width="1.5" stroke-miterlimit="10" stroke-linecap="round" stroke-linejoin="round"/>
<path d="M7.9917 16.3604H12.3717" stroke="#292D32" stroke-width="1.5" stroke-miterlimit="10" stroke-linecap="round" stroke-linejoin="round"/>
<path d="M9.9917 6.16016H13.9917C15.9917 6.16016 15.9917 5.16016 15.9917 4.16016C15.9917 2.16016 14.9917 2.16016 13.9917 2.16016H9.9917C8.9917 2.16016 7.9917 2.16016 7.9917 4.16016C7.9917 6.16016 8.9917 6.16016 9.9917 6.16016Z" stroke="#292D32" stroke-width="1.5" stroke-miterlimit="10" stroke-linecap="round" stroke-linejoin="round"/>
<path d="M15.9917 4.17969C19.3217 4.35969 20.9917 5.58969 20.9917 10.1597V16.1597C20.9917 20.1597 19.9917 22.1597 14.9917 22.1597H8.9917C3.9917 22.1597 2.9917 20.1597 2.9917 16.1597V10.1597C2.9917 5.59969 4.6617 4.35969 7.9917 4.17969" stroke="#292D32" stroke-width="1.5" stroke-miterlimit="10" stroke-linecap="round" stroke-linejoin="round"/>
</svg>
