<svg width="25" height="25" viewBox="0 0 25 25" fill="none" xmlns="http://www.w3.org/2000/svg">
<path d="M17.541 19.4686H8.14102C7.72102 19.4686 7.25102 19.1386 7.11102 18.7386L2.97102 7.15863C2.38102 5.49863 3.07102 4.98863 4.49102 6.00863L8.39102 8.79863C9.04102 9.24863 9.78102 9.01863 10.061 8.28863L11.821 3.59863C12.381 2.09863 13.311 2.09863 13.871 3.59863L15.631 8.28863C15.911 9.01863 16.651 9.24863 17.291 8.79863L20.951 6.18863C22.511 5.06863 23.261 5.63863 22.621 7.44863L18.581 18.7586C18.431 19.1386 17.961 19.4686 17.541 19.4686Z" stroke="#292D32" stroke-width="1.5" stroke-linecap="round" stroke-linejoin="round"/>
<path d="M7.34082 22.4883H18.3408" stroke="#292D32" stroke-width="1.5" stroke-linecap="round" stroke-linejoin="round"/>
<path d="M10.3408 14.4883H15.3408" stroke="#292D32" stroke-width="1.5" stroke-linecap="round" stroke-linejoin="round"/>
</svg>
