<svg width="25" height="25" viewBox="0 0 25 25" fill="none" xmlns="http://www.w3.org/2000/svg">
<path d="M12.772 17.4219V19.5219" stroke="#292D32" stroke-width="1.5" stroke-linecap="round" stroke-linejoin="round"/>
<path d="M7.77197 22.9219H17.772V21.9219C17.772 20.8219 16.872 19.9219 15.772 19.9219H9.77197C8.67197 19.9219 7.77197 20.8219 7.77197 21.9219V22.9219V22.9219Z" stroke="#292D32" stroke-width="1.5" stroke-miterlimit="10"/>
<path d="M6.77197 22.9219H18.772" stroke="#292D32" stroke-width="1.5" stroke-linecap="round" stroke-linejoin="round"/>
<path d="M12.6221 16.9219C8.75207 16.9219 5.62207 13.7919 5.62207 9.92188V6.92188C5.62207 4.71187 7.41207 2.92188 9.62207 2.92188H15.6221C17.8321 2.92188 19.6221 4.71187 19.6221 6.92188V9.92188C19.6221 13.7919 16.4921 16.9219 12.6221 16.9219Z" stroke="#292D32" stroke-width="1.5" stroke-linecap="round" stroke-linejoin="round"/>
<path d="M6.09211 12.5715C5.34211 12.3315 4.68211 11.8915 4.16211 11.3715C3.26211 10.3715 2.66211 9.17148 2.66211 7.77148C2.66211 6.37148 3.76211 5.27148 5.16211 5.27148H5.81211C5.61211 5.73148 5.51211 6.24148 5.51211 6.77148V9.77148C5.51211 10.7715 5.72211 11.7115 6.09211 12.5715Z" stroke="#292D32" stroke-width="1.5" stroke-linecap="round" stroke-linejoin="round"/>
<path d="M19.1519 12.5715C19.9019 12.3315 20.5619 11.8915 21.0819 11.3715C21.9819 10.3715 22.5819 9.17148 22.5819 7.77148C22.5819 6.37148 21.4819 5.27148 20.0819 5.27148H19.4319C19.6319 5.73148 19.7319 6.24148 19.7319 6.77148V9.77148C19.7319 10.7715 19.5219 11.7115 19.1519 12.5715Z" stroke="#292D32" stroke-width="1.5" stroke-linecap="round" stroke-linejoin="round"/>
</svg>
