<svg width="25" height="25" viewBox="0 0 25 25" fill="none" xmlns="http://www.w3.org/2000/svg">
<path d="M17.4211 5.81055L14.3211 3.41055C13.9211 3.01055 13.0211 2.81055 12.4211 2.81055H8.6211C7.4211 2.81055 6.1211 3.71055 5.8211 4.91055L3.4211 12.2105C2.9211 13.6105 3.8211 14.8105 5.3211 14.8105H9.3211C9.9211 14.8105 10.4211 15.3105 10.3211 16.0105L9.8211 19.2105C9.6211 20.1105 10.2211 21.1105 11.1211 21.4105C11.9211 21.7105 12.9211 21.3105 13.3211 20.7105L17.4211 14.6105" stroke="#292D32" stroke-width="1.5" stroke-miterlimit="10"/>
<path d="M22.521 5.81016V15.6102C22.521 17.0102 21.921 17.5102 20.521 17.5102H19.521C18.121 17.5102 17.521 17.0102 17.521 15.6102V5.81016C17.521 4.41016 18.121 3.91016 19.521 3.91016H20.521C21.921 3.91016 22.521 4.41016 22.521 5.81016Z" stroke="#292D32" stroke-width="1.5" stroke-linecap="round" stroke-linejoin="round"/>
</svg>
