<svg width="25" height="25" viewBox="0 0 25 25" fill="none" xmlns="http://www.w3.org/2000/svg">
<path d="M10.4709 12.6201L7.4209 15.6701" stroke="#292D32" stroke-width="1.5" stroke-miterlimit="10" stroke-linecap="round" stroke-linejoin="round"/>
<path d="M7.45068 12.6504L10.5007 15.7004" stroke="#292D32" stroke-width="1.5" stroke-miterlimit="10" stroke-linecap="round" stroke-linejoin="round"/>
<path d="M14.4307 14.1602H14.4407" stroke="#292D32" stroke-width="2" stroke-miterlimit="10" stroke-linecap="round" stroke-linejoin="round"/>
<path d="M18.3711 14.1602H18.3811" stroke="#292D32" stroke-width="2" stroke-miterlimit="10" stroke-linecap="round" stroke-linejoin="round"/>
<path d="M16.4009 16.1401V16.1201" stroke="#292D32" stroke-width="2" stroke-miterlimit="10" stroke-linecap="round" stroke-linejoin="round"/>
<path d="M16.4009 12.1997V12.1797" stroke="#292D32" stroke-width="2" stroke-miterlimit="10" stroke-linecap="round" stroke-linejoin="round"/>
<path d="M9.90088 22.1602H15.9009C20.9009 22.1602 22.9009 20.1602 22.9009 15.1602V13.1602C22.9009 8.16016 20.9009 6.16016 15.9009 6.16016H9.90088C4.90088 6.16016 2.90088 8.16016 2.90088 13.1602V15.1602C2.90088 20.1602 4.90088 22.1602 9.90088 22.1602Z" stroke="#292D32" stroke-width="1.5" stroke-linecap="round" stroke-linejoin="round"/>
<path d="M13.9109 2.16016L13.9009 3.17016C13.8909 3.72016 13.4509 4.16016 12.9009 4.16016H12.8709C12.3209 4.16016 11.8809 4.61016 11.8809 5.16016C11.8809 5.71016 12.3309 6.16016 12.8809 6.16016H13.8809" stroke="#292D32" stroke-width="1.5" stroke-linecap="round" stroke-linejoin="round"/>
</svg>
