<svg width="25" height="25" viewBox="0 0 25 25" fill="none" xmlns="http://www.w3.org/2000/svg">
<path d="M8.10205 18.5106L11.2021 20.9106C11.6021 21.3106 12.5021 21.5106 13.1021 21.5106H16.9021C18.1021 21.5106 19.4021 20.6106 19.7021 19.4106L22.1021 12.1106C22.6021 10.7106 21.7021 9.51061 20.2021 9.51061H16.2021C15.6021 9.51061 15.1021 9.01061 15.2021 8.31061L15.7021 5.11061C15.9021 4.21061 15.3021 3.21061 14.4021 2.91061C13.6021 2.61061 12.6021 3.01061 12.2021 3.61061L8.10205 9.71061" stroke="#292D32" stroke-width="1.5" stroke-miterlimit="10"/>
<path d="M3.00195 18.5105V8.71055C3.00195 7.31055 3.60195 6.81055 5.00195 6.81055H6.00195C7.40195 6.81055 8.00195 7.31055 8.00195 8.71055V18.5105C8.00195 19.9105 7.40195 20.4105 6.00195 20.4105H5.00195C3.60195 20.4105 3.00195 19.9105 3.00195 18.5105Z" stroke="#292D32" stroke-width="1.5" stroke-linecap="round" stroke-linejoin="round"/>
</svg>
