<svg width="25" height="25" viewBox="0 0 25 25" fill="none" xmlns="http://www.w3.org/2000/svg">
<path d="M17.8408 18.5899H13.8408L9.39081 21.5499C8.73081 21.9899 7.84082 21.5199 7.84082 20.7199V18.5899C4.84082 18.5899 2.84082 16.5899 2.84082 13.5899V7.58984C2.84082 4.58984 4.84082 2.58984 7.84082 2.58984H17.8408C20.8408 2.58984 22.8408 4.58984 22.8408 7.58984V13.5899C22.8408 16.5899 20.8408 18.5899 17.8408 18.5899Z" stroke="#292D32" stroke-width="1.5" stroke-miterlimit="10" stroke-linecap="round" stroke-linejoin="round"/>
<path d="M12.8406 11.5205V11.3105C12.8406 10.6305 13.2607 10.2705 13.6807 9.98053C14.0907 9.70053 14.5006 9.34054 14.5006 8.68054C14.5006 7.76054 13.7606 7.02051 12.8406 7.02051C11.9206 7.02051 11.1807 7.76054 11.1807 8.68054" stroke="#292D32" stroke-width="1.5" stroke-linecap="round" stroke-linejoin="round"/>
<path d="M12.8363 13.9102H12.8453" stroke="#292D32" stroke-width="1.5" stroke-linecap="round" stroke-linejoin="round"/>
</svg>
