<svg width="25" height="25" viewBox="0 0 25 25" fill="none" xmlns="http://www.w3.org/2000/svg">
<path d="M16.6226 2.58691H8.62256C4.62256 2.58691 2.62256 4.58691 2.62256 8.58691V21.5869C2.62256 22.1369 3.07256 22.5869 3.62256 22.5869H16.6226C20.6226 22.5869 22.6226 20.5869 22.6226 16.5869V8.58691C22.6226 4.58691 20.6226 2.58691 16.6226 2.58691Z" stroke="#292D32" stroke-width="1.5" stroke-linecap="round" stroke-linejoin="round"/>
<path d="M13.5324 8.42707L8.34235 13.6171C8.14235 13.8171 7.95236 14.2071 7.91236 14.4871L7.63236 16.4671C7.53236 17.1871 8.03235 17.6871 8.75235 17.5871L10.7323 17.3071C11.0123 17.2671 11.4024 17.0771 11.6024 16.8771L16.7924 11.6871C17.6824 10.7971 18.1124 9.75706 16.7924 8.43706C15.4724 7.10706 14.4324 7.52707 13.5324 8.42707Z" stroke="#292D32" stroke-width="1.5" stroke-miterlimit="10" stroke-linecap="round" stroke-linejoin="round"/>
<path d="M12.7925 9.16699C13.2325 10.737 14.4625 11.977 16.0425 12.417" stroke="#292D32" stroke-width="1.5" stroke-miterlimit="10" stroke-linecap="round" stroke-linejoin="round"/>
</svg>
