<svg width="19" height="23" viewBox="0 0 19 23" fill="none" xmlns="http://www.w3.org/2000/svg">
<path d="M17.8439 6.5V16.5C17.8439 20.5 16.8324 21.5 12.7868 21.5H6.71828C2.67261 21.5 1.66119 20.5 1.66119 16.5V6.5C1.66119 2.5 2.67261 1.5 6.71828 1.5H12.7868C16.8324 1.5 17.8439 2.5 17.8439 6.5Z" stroke="#2C2523" stroke-width="1.5" stroke-linecap="round" stroke-linejoin="round"/>
<path d="M11.7753 5H7.72968" stroke="#2C2523" stroke-width="1.5" stroke-linecap="round" stroke-linejoin="round"/>
<path d="M9.75251 18.6C10.6183 18.6 11.3202 17.906 11.3202 17.05C11.3202 16.194 10.6183 15.5 9.75251 15.5C8.8867 15.5 8.18481 16.194 8.18481 17.05C8.18481 17.906 8.8867 18.6 9.75251 18.6Z" stroke="#2C2523" stroke-width="1.5" stroke-linecap="round" stroke-linejoin="round"/>
</svg>
