<svg width="25" height="25" viewBox="0 0 25 25" fill="none" xmlns="http://www.w3.org/2000/svg">
<path d="M13.0009 11.1102C12.9009 11.1002 12.7809 11.1002 12.6709 11.1102C10.2909 11.0302 8.40088 9.08023 8.40088 6.68023C8.40088 4.23023 10.3809 2.24023 12.8409 2.24023C15.2909 2.24023 17.2809 4.23023 17.2809 6.68023C17.2709 9.08023 15.3809 11.0302 13.0009 11.1102Z" stroke="#292D32" stroke-width="1.5" stroke-linecap="round" stroke-linejoin="round"/>
<path d="M8.00104 14.8002C5.58104 16.4202 5.58104 19.0602 8.00104 20.6702C10.751 22.5102 15.261 22.5102 18.011 20.6702C20.431 19.0502 20.431 16.4102 18.011 14.8002C15.271 12.9702 10.761 12.9702 8.00104 14.8002Z" stroke="#292D32" stroke-width="1.5" stroke-linecap="round" stroke-linejoin="round"/>
</svg>
