<svg width="25" height="25" viewBox="0 0 25 25" fill="none" xmlns="http://www.w3.org/2000/svg">
<path d="M9.57088 14.9229H4.90088C3.80088 14.9229 2.90088 15.8229 2.90088 16.9229V22.9229H9.57088V14.9229Z" stroke="#292D32" stroke-width="1.5" stroke-miterlimit="10" stroke-linecap="round" stroke-linejoin="round"/>
<path d="M14.231 10.9229H11.561C10.461 10.9229 9.56104 11.8229 9.56104 12.9229V22.9229H16.231V12.9229C16.231 11.8229 15.341 10.9229 14.231 10.9229Z" stroke="#292D32" stroke-width="1.5" stroke-miterlimit="10" stroke-linecap="round" stroke-linejoin="round"/>
<path d="M20.901 17.9229H16.231V22.9229H22.901V19.9229C22.901 18.8229 22.001 17.9229 20.901 17.9229Z" stroke="#292D32" stroke-width="1.5" stroke-miterlimit="10" stroke-linecap="round" stroke-linejoin="round"/>
<path d="M13.4211 2.99267L13.9511 4.05267C14.0211 4.20267 14.2111 4.34267 14.3711 4.36267L15.3311 4.52267C15.9411 4.62267 16.0911 5.07265 15.6511 5.50265L14.9011 6.25265C14.7711 6.38265 14.7011 6.62266 14.7411 6.79266L14.9511 7.71268C15.1211 8.44268 14.7311 8.72268 14.0911 8.34268L13.1911 7.81268C13.0311 7.71268 12.7611 7.71268 12.6011 7.81268L11.7011 8.34268C11.0611 8.72268 10.6711 8.44268 10.8411 7.71268L11.0511 6.79266C11.0911 6.62266 11.0211 6.37265 10.8911 6.25265L10.1511 5.51266C9.71111 5.07266 9.85111 4.63265 10.4711 4.53265L11.4311 4.37268C11.5911 4.34268 11.7811 4.20268 11.8511 4.06268L12.3811 3.00265C12.6711 2.42265 13.1311 2.42267 13.4211 2.99267Z" stroke="#292D32" stroke-width="1.5" stroke-linecap="round" stroke-linejoin="round"/>
</svg>
