<svg width="25" height="25" viewBox="0 0 25 25" fill="none" xmlns="http://www.w3.org/2000/svg">
<path d="M12.6221 15.2393C14.2789 15.2393 15.6221 13.8961 15.6221 12.2393C15.6221 10.5824 14.2789 9.23926 12.6221 9.23926C10.9652 9.23926 9.62207 10.5824 9.62207 12.2393C9.62207 13.8961 10.9652 15.2393 12.6221 15.2393Z" stroke="#292D32" stroke-width="1.5" stroke-miterlimit="10" stroke-linecap="round" stroke-linejoin="round"/>
<path d="M2.62207 13.1197V11.3597C2.62207 10.3197 3.47207 9.45968 4.52207 9.45968C6.33207 9.45968 7.07207 8.17968 6.16207 6.60968C5.64207 5.70968 5.95207 4.53968 6.86207 4.01968L8.59207 3.02968C9.38207 2.55968 10.4021 2.83968 10.8721 3.62968L10.9821 3.81968C11.8821 5.38968 13.3621 5.38968 14.2721 3.81968L14.3821 3.62968C14.8521 2.83968 15.8721 2.55968 16.6621 3.02968L18.3921 4.01968C19.3021 4.53968 19.6121 5.70968 19.0921 6.60968C18.1821 8.17968 18.9221 9.45968 20.7321 9.45968C21.7721 9.45968 22.6321 10.3097 22.6321 11.3597V13.1197C22.6321 14.1597 21.7821 15.0197 20.7321 15.0197C18.9221 15.0197 18.1821 16.2997 19.0921 17.8697C19.6121 18.7797 19.3021 19.9397 18.3921 20.4597L16.6621 21.4497C15.8721 21.9197 14.8521 21.6397 14.3821 20.8497L14.2721 20.6597C13.3721 19.0897 11.8921 19.0897 10.9821 20.6597L10.8721 20.8497C10.4021 21.6397 9.38207 21.9197 8.59207 21.4497L6.86207 20.4597C5.95207 19.9397 5.64207 18.7697 6.16207 17.8697C7.07207 16.2997 6.33207 15.0197 4.52207 15.0197C3.47207 15.0197 2.62207 14.1597 2.62207 13.1197Z" stroke="#292D32" stroke-width="1.5" stroke-miterlimit="10" stroke-linecap="round" stroke-linejoin="round"/>
</svg>
