<svg width="25" height="25" viewBox="0 0 25 25" fill="none" xmlns="http://www.w3.org/2000/svg">
<path d="M14.4545 3.99793L16.2145 7.51793C16.4545 8.00793 17.0945 8.47793 17.6345 8.56793L20.8245 9.09793C22.8645 9.43793 23.3445 10.9179 21.8745 12.3779L19.3945 14.8579C18.9745 15.2779 18.7445 16.0879 18.8745 16.6679L19.5845 19.7379C20.1445 22.1679 18.8545 23.1079 16.7045 21.8379L13.7145 20.0679C13.1745 19.7479 12.2845 19.7479 11.7345 20.0679L8.74452 21.8379C6.60452 23.1079 5.30452 22.1579 5.86452 19.7379L6.57452 16.6679C6.70452 16.0879 6.47452 15.2779 6.05452 14.8579L3.57452 12.3779C2.11452 10.9179 2.58452 9.43793 4.62452 9.09793L7.81452 8.56793C8.34452 8.47793 8.98452 8.00793 9.22452 7.51793L10.9845 3.99793C11.9445 2.08793 13.5045 2.08793 14.4545 3.99793Z" stroke="#292D32" stroke-width="1.5" stroke-linecap="round" stroke-linejoin="round"/>
</svg>
