<svg width="19" height="19" viewBox="0 0 19 19" fill="none" xmlns="http://www.w3.org/2000/svg">
<path d="M9.24991 1.83301C7.26638 1.83301 5.65381 3.44558 5.65381 5.42911C5.65381 7.37479 7.17553 8.94951 9.15906 9.01765C9.21963 9.01008 9.2802 9.01008 9.32562 9.01765C9.34076 9.01765 9.34833 9.01765 9.36347 9.01765C9.37105 9.01765 9.37105 9.01765 9.37862 9.01765C11.3167 8.94951 12.8384 7.37479 12.846 5.42911C12.846 3.44558 11.2334 1.83301 9.24991 1.83301Z" fill="#292D32"/>
<path d="M13.0958 11.0317C10.9836 9.62355 7.53886 9.62355 5.41148 11.0317C4.45 11.6752 3.92004 12.5459 3.92004 13.4771C3.92004 14.4083 4.45 15.2713 5.40391 15.9073C6.46381 16.6189 7.85683 16.9747 9.24985 16.9747C10.6429 16.9747 12.0359 16.6189 13.0958 15.9073C14.0497 15.2638 14.5797 14.4007 14.5797 13.4619C14.5721 12.5307 14.0497 11.6676 13.0958 11.0317Z" fill="#292D32"/>
</svg>
