<svg width="25" height="25" viewBox="0 0 25 25" fill="none" xmlns="http://www.w3.org/2000/svg">
<path d="M15.1626 16.3145H10.1626" stroke="#292D32" stroke-width="1.5" stroke-miterlimit="10" stroke-linecap="round" stroke-linejoin="round"/>
<path d="M13.5608 2.83454L13.5308 2.90454L10.6308 9.63454H7.78084C7.10084 9.63454 6.45084 9.77454 5.86084 10.0245L7.61084 5.84454L7.65084 5.74454L7.72084 5.58454C7.74084 5.52454 7.76084 5.46454 7.79084 5.41454C9.10084 2.38454 10.5808 1.69454 13.5608 2.83454Z" stroke="#292D32" stroke-width="1.5" stroke-linecap="round" stroke-linejoin="round"/>
<path d="M18.9509 9.83496C18.5009 9.69496 18.0209 9.63496 17.5409 9.63496H10.6309L13.5309 2.90496L13.5609 2.83496C13.7109 2.88496 13.8509 2.95496 14.0009 3.01496L16.2109 3.94496C17.4409 4.45496 18.3009 4.98496 18.8209 5.62496C18.9209 5.74496 19.0009 5.85496 19.0709 5.98496C19.1609 6.12496 19.2309 6.26496 19.2709 6.41496C19.3109 6.50496 19.3409 6.59496 19.3609 6.67496C19.6309 7.51496 19.4709 8.54496 18.9509 9.83496Z" stroke="#292D32" stroke-width="1.5" stroke-linecap="round" stroke-linejoin="round"/>
<path d="M22.4226 14.5148V16.4648C22.4226 16.6648 22.4126 16.8648 22.4026 17.0648C22.2126 20.5548 20.2626 22.3148 16.5626 22.3148H8.7626C8.5226 22.3148 8.2826 22.2948 8.0526 22.2648C4.8726 22.0548 3.1726 20.3548 2.9626 17.1748C2.9326 16.9448 2.9126 16.7048 2.9126 16.4648V14.5148C2.9126 12.5048 4.1326 10.7748 5.8726 10.0248C6.4726 9.77477 7.1126 9.63477 7.7926 9.63477H17.5526C18.0426 9.63477 18.5226 9.70477 18.9626 9.83477C20.9526 10.4448 22.4226 12.3048 22.4226 14.5148Z" stroke="#292D32" stroke-width="1.5" stroke-linecap="round" stroke-linejoin="round"/>
<path d="M7.61088 5.84473L5.86088 10.0247C4.12088 10.7747 2.90088 12.5047 2.90088 14.5147V11.5847C2.90088 8.74473 4.92088 6.37473 7.61088 5.84473Z" stroke="#292D32" stroke-width="1.5" stroke-linecap="round" stroke-linejoin="round"/>
<path d="M22.4195 11.5841V14.5141C22.4195 12.3141 20.9595 10.4441 18.9595 9.84406C19.4795 8.54406 19.6295 7.52406 19.3795 6.67406C19.3595 6.58406 19.3295 6.49406 19.2895 6.41406C21.1495 7.37406 22.4195 9.34406 22.4195 11.5841Z" stroke="#292D32" stroke-width="1.5" stroke-linecap="round" stroke-linejoin="round"/>
</svg>
